<?xml version="1.0" encoding="utf-8"?>
<!-- Generator: Adobe Illustrator 23.0.2, SVG Export Plug-In . SVG Version: 6.00 Build 0)  -->
<svg version="1.1" xmlns="http://www.w3.org/2000/svg" xmlns:xlink="http://www.w3.org/1999/xlink" x="0px" y="0px"
	 viewBox="0 0 306.34 99.32" style="enable-background:new 0 0 306.34 99.32;" xml:space="preserve">
<style type="text/css">
	.st0{fill:#4B286D;}
	.st1{fill:#66CC00;}
	.st2{display:none;}
	.st3{display:inline;fill:none;}
</style>
<g id="TELUS">
	<g>
		<g>
			<g>
				<polyline class="st0" points="173.2,39.14 173.2,34.06 155.09,34.06 155.09,60.19 173.2,60.19 173.2,54.89 162.43,54.89 
					162.43,49.1 171.39,49.1 171.39,44.02 162.43,44.02 162.43,39.14 173.2,39.14 				"/>
				<polyline class="st0" points="205.16,55.03 193.84,55.03 193.84,34.06 186.41,34.06 186.41,60.19 205.16,60.19 205.16,55.03 
									"/>
				<path class="st0" d="M264.96,44.02c-5.01-1.13-6.76-1.26-6.76-3.25c0-1.85,2.48-2.43,3.91-2.43c2.32,0,5.04,0.54,7.81,1.97
					l2.02-4.81c-2.84-1.56-6.5-2.2-10.02-2.2c-6.91,0-11.55,2.8-11.74,8.27c-0.2,4.98,3.85,6.85,7.58,7.62
					c3.59,0.74,7.23,1.38,7.31,3.51c0.07,1.97-1.7,2.81-5.04,2.81c-3.09,0-5.97-0.99-8.91-2.22l-1.71,5.22
					c3.37,1.44,6.8,2.23,10.34,2.23c4.91,0,8.49-0.76,11.13-3.24c1.83-1.7,2.43-3.75,2.43-5.71
					C273.3,47.65,270.73,45.32,264.96,44.02"/>
				<polyline class="st0" points="144.55,39.22 144.55,34.06 121.76,34.06 121.76,39.22 129.46,39.22 129.46,60.19 136.85,60.19 
					136.85,39.22 144.55,39.22 				"/>
				<path class="st0" d="M230.49,34.06v16.6c0,1.3,0,1.66-0.08,2.17c-0.23,1.58-1.77,2.5-4.22,2.53c-1.81-0.03-3.14-0.56-3.76-1.51
					c-0.31-0.49-0.46-1.36-0.46-2.76V34.06h-7.7v18.01c0,2.5,0.33,3.62,1.46,5.04c1.86,2.33,5.48,3.55,10.48,3.55
					c0.05,0,0.11,0,0.16,0c0.03,0,0.07,0,0.11,0c6.68,0,10.13-2.61,11.13-5.05c0.5-1.18,0.54-1.74,0.54-4.13V34.06H230.49"/>
				<g>
					<path class="st0" d="M125.24,26.9l-43.18,8.6v3.01l0.14-0.04c28.53-6.93,43.04-11.1,43.16-11.13c0.16-0.04,0.22-0.17,0.2-0.27
						C125.53,26.96,125.42,26.87,125.24,26.9"/>
					<path class="st1" d="M89,29.31c0.67-0.43,0.86-0.16,0.66,0.32C89.35,30.4,87.89,35.08,77.01,44c-2.84,2.32-4.85,3.63-8.94,6.05
						C74.76,40.68,84.53,32.21,89,29.31 M90.13,26.08c-2.1,0.12-5.99,3.23-8.12,5.08c-8.5,7.35-14.81,14.11-19.41,21.18
						c-9.58,5.13-21.78,10.4-33.91,14.52l-0.29,0.1l-2.33,6.28l1.33-0.52c7.71-2.94,20.58-8.46,32.25-14.59
						c-0.66,1.75-0.99,3.36-0.99,4.83c0,1.1,0.18,2.11,0.55,3.04c0.73,1.84,2.18,3.24,4.18,4.04c2.99,1.19,7.06,1.22,11.71-0.19
						c11.87-3.6,25.96-14.65,29.03-16.85l0.11-0.08c0.12-0.09,0.13-0.22,0.08-0.31c-0.07-0.1-0.21-0.13-0.32-0.06l0,0l0,0
						l-0.15,0.09c-3.29,1.97-19.28,11.46-29.68,14.25c-5.29,1.42-9.33,0.64-10.85-1.49c-0.53-0.73-0.78-1.65-0.78-2.72
						c0-2.09,0.98-4.76,2.89-7.72c1.75-1,3.38-1.97,4.85-2.89c10.14-5.7,21.83-16.78,22.32-23.54c0-0.05,0-0.1,0-0.15
						c0-0.58-0.25-1.18-0.7-1.63C91.44,26.28,90.81,26.04,90.13,26.08z"/>
				</g>
				<polyline class="st0" points="81.92,35.53 36.49,45.3 34.73,50.02 82.06,38.51 82.13,38.49 82.13,35.49 81.92,35.53 				"/>
			</g>
		</g>
	</g>
</g>
<g id="TELUS__xAE__1_">
	<g>
		<g>
			<path class="st0" d="M277.55,34.06c1.48,0,2.72,1.17,2.72,2.7c0,1.56-1.24,2.73-2.72,2.73c-1.49,0-2.74-1.17-2.74-2.73
				C274.81,35.23,276.06,34.06,277.55,34.06z M277.55,39.09c1.26,0,2.23-1,2.23-2.33c0-1.3-0.97-2.3-2.23-2.3
				c-1.27,0-2.24,1-2.24,2.3C275.3,38.09,276.27,39.09,277.55,39.09z M276.49,35.18h1.23c0.75,0,1.11,0.3,1.11,0.91
				c0,0.57-0.36,0.81-0.84,0.86l0.91,1.4h-0.53l-0.86-1.36h-0.52v1.36h-0.49V35.18z M276.98,36.59h0.52c0.43,0,0.84-0.02,0.84-0.52
				c0-0.42-0.36-0.49-0.7-0.49h-0.65V36.59z"/>
		</g>
	</g>
</g>
<g id="Safe_Areas" class="st2">
	<polygon class="st3" points="101.48,5.15 101.48,0 78.74,0 78.74,5.15 86.43,5.15 86.43,26.08 93.79,26.08 93.79,5.15 	"/>
	<polygon class="st3" points="48.82,78.39 48.82,73.24 26.08,73.24 26.08,78.39 33.76,78.39 33.76,99.32 41.13,99.32 41.13,78.39 	
		"/>
	<polygon class="st3" points="20.93,73.24 26.08,73.24 26.08,50.5 20.93,50.5 20.93,58.19 0,58.19 0,65.55 20.93,65.55 	"/>
	<polygon class="st3" points="285.41,35.64 280.27,35.64 280.27,58.38 285.41,58.38 285.41,50.7 306.34,50.7 306.34,43.33 
		285.41,43.33 	"/>
</g>
</svg>
